<?xml version="1.0" encoding="UTF-8" ?>
<!DOCTYPE svg PUBLIC "-//W3C//DTD SVG 1.1//EN" "http://www.w3.org/Graphics/SVG/1.1/DTD/svg11.dtd">
<svg width="1035pt" height="448pt" viewBox="0 0 1035 448" version="1.1" xmlns="http://www.w3.org/2000/svg">
<g id="#9b9b9bff">
<path fill="#9b9b9b" opacity="1.00" d=" M 918.44 112.46 C 923.20 107.61 930.03 105.59 936.62 104.85 C 936.63 129.23 936.62 153.61 936.63 178.00 C 936.68 186.07 935.73 194.45 931.67 201.58 C 927.73 208.48 920.66 213.26 913.00 215.10 C 902.76 217.66 891.77 217.51 881.70 214.28 C 873.82 211.67 866.98 205.81 863.59 198.19 C 858.86 187.92 858.66 176.26 859.67 165.19 C 860.59 156.54 863.02 147.59 868.96 140.98 C 876.42 132.80 888.57 130.07 899.17 132.15 C 906.19 133.48 912.03 138.21 915.92 144.05 C 915.89 134.99 915.75 125.92 915.99 116.86 C 915.83 115.01 917.31 113.71 918.44 112.46 M 893.52 150.71 C 886.40 152.28 882.59 159.50 881.52 166.16 C 880.21 174.66 880.10 183.98 884.23 191.76 C 888.75 200.02 900.82 201.20 908.12 196.12 C 913.96 191.72 915.39 183.92 915.77 177.05 C 915.95 169.86 915.35 162.03 911.07 155.97 C 907.20 150.52 899.69 149.15 893.52 150.71 Z" />
<path fill="#9b9b9b" opacity="1.00" d=" M 157.62 110.79 C 201.51 107.18 246.77 113.43 286.80 132.29 C 311.05 143.94 333.84 160.62 348.14 183.81 C 356.88 197.87 361.61 214.41 361.03 230.99 C 361.81 254.94 353.60 278.86 338.67 297.55 C 319.47 321.93 291.46 337.87 262.25 347.22 C 237.64 355.08 211.79 358.54 186.01 358.98 C 146.79 359.54 106.72 353.29 71.40 335.56 C 46.71 323.11 24.38 304.26 11.75 279.29 C 5.69 267.42 2.07 254.32 1.20 241.02 C 0.61 228.57 0.72 215.83 4.65 203.87 C 12.07 180.34 29.42 161.22 49.34 147.29 C 81.11 125.27 119.37 114.09 157.62 110.79 M 52.54 153.41 C 66.40 158.62 80.65 162.71 95.05 166.13 C 102.16 167.91 109.66 168.88 116.92 167.38 C 125.65 165.53 134.12 162.23 143.11 161.73 C 146.28 161.97 148.44 159.45 150.85 157.85 C 159.66 151.66 170.22 148.18 180.89 147.14 C 196.54 145.35 212.32 149.21 226.50 155.68 C 234.89 159.60 243.72 162.62 252.85 164.21 C 273.09 167.97 294.03 163.83 312.68 155.64 C 303.79 149.08 294.25 143.43 284.27 138.69 C 245.45 120.41 201.56 114.35 158.99 117.73 C 121.41 120.86 83.68 131.61 52.54 153.41 M 161.45 159.54 C 151.19 164.71 143.13 173.15 135.37 181.42 C 131.32 185.95 126.90 190.17 123.19 194.99 C 129.24 200.19 138.46 200.18 145.55 197.29 C 156.57 191.49 164.93 181.72 176.03 176.05 C 182.01 173.07 189.10 171.63 195.62 173.63 C 202.62 175.75 208.33 180.56 214.00 184.98 C 235.47 202.57 256.28 220.94 277.28 239.09 C 301.64 228.46 327.05 220.33 352.98 214.51 C 348.98 192.96 335.42 174.47 318.96 160.55 C 310.39 164.32 301.56 167.56 292.43 169.69 C 270.68 175.03 247.30 172.62 226.92 163.42 C 219.87 160.08 212.53 157.27 204.91 155.54 C 190.53 152.17 174.85 153.06 161.45 159.54 M 9.52 212.68 C 21.01 216.09 32.80 218.39 44.27 221.86 C 58.94 226.38 73.83 231.23 86.67 239.87 C 90.20 237.07 94.41 234.78 99.05 234.94 C 104.30 234.77 109.09 237.55 112.66 241.23 C 121.89 235.01 136.01 237.49 141.63 247.39 C 148.83 245.40 157.19 246.99 162.46 252.49 C 166.24 256.53 167.18 262.30 167.11 267.65 C 175.33 267.51 183.44 272.48 186.61 280.13 C 189.11 285.56 188.50 291.82 186.51 297.30 C 193.50 300.69 203.41 303.73 209.61 297.31 C 205.22 292.40 200.78 287.53 196.32 282.67 C 195.15 281.29 193.64 279.92 193.59 277.98 C 194.28 276.50 196.34 276.42 197.42 277.50 C 203.87 282.35 209.21 288.48 215.25 293.79 C 220.50 296.71 228.27 294.43 230.88 288.92 C 232.00 286.46 230.78 283.74 229.08 281.90 C 224.07 276.24 219.03 270.62 213.99 264.99 C 212.90 263.77 211.87 262.46 211.34 260.90 C 212.24 258.43 214.86 259.42 216.27 260.76 C 223.21 266.46 229.27 273.13 235.88 279.19 C 241.76 283.87 250.96 280.51 254.48 274.44 C 256.61 270.86 255.30 266.31 252.43 263.56 C 245.32 256.37 238.18 249.18 231.00 242.06 C 229.84 240.72 228.05 239.37 228.31 237.39 C 229.38 235.16 231.90 236.55 233.19 237.74 C 241.84 245.06 250.13 252.80 258.57 260.36 C 263.89 265.43 273.62 263.32 276.96 256.97 C 278.89 252.91 277.18 247.96 273.84 245.19 C 252.76 226.89 231.78 208.47 210.23 190.72 C 205.18 186.67 199.97 182.39 193.59 180.66 C 189.14 179.42 184.38 180.32 180.23 182.18 C 169.19 187.21 160.83 196.39 150.44 202.46 C 143.07 206.83 133.83 206.50 125.91 203.92 C 122.02 202.64 117.90 200.20 116.77 195.99 C 116.05 193.15 117.70 190.45 119.58 188.48 C 125.44 182.13 131.37 175.85 137.18 169.46 C 128.72 170.99 120.65 174.51 112.00 174.93 C 105.22 175.12 98.46 174.16 91.88 172.61 C 76.28 168.97 60.98 164.06 46.11 158.11 C 28.73 171.91 14.16 190.60 9.52 212.68 M 8.38 220.23 C 7.79 226.99 7.98 233.84 9.24 240.52 C 12.97 261.18 25.70 279.14 41.29 292.72 C 66.21 314.30 97.82 326.76 129.85 333.21 C 171.40 341.27 215.02 339.65 255.60 327.37 C 284.94 318.27 313.55 303.36 333.66 279.61 C 347.19 263.80 355.41 243.04 353.92 222.06 C 329.52 227.59 305.49 234.89 282.34 244.41 C 284.83 249.42 285.55 255.63 282.67 260.65 C 278.80 267.69 270.20 270.88 262.48 269.87 C 262.37 281.66 249.84 289.67 238.86 288.03 C 235.98 297.65 225.01 303.67 215.31 301.02 C 212.95 303.92 209.84 306.25 206.14 307.07 C 198.10 309.32 189.79 306.57 182.66 302.85 C 177.83 307.09 171.35 309.78 164.86 308.74 C 157.73 307.86 151.61 302.85 148.62 296.41 C 139.59 298.91 129.59 294.16 125.51 285.81 C 115.02 287.68 104.45 280.14 102.11 269.90 C 95.74 270.47 88.86 268.27 85.05 262.91 C 81.21 258.00 80.84 251.26 82.71 245.49 C 77.74 242.20 72.40 239.50 66.90 237.21 C 48.11 229.32 28.16 224.83 8.38 220.23 M 88.51 249.36 C 86.46 255.68 91.40 262.87 98.01 263.33 C 101.92 263.96 105.15 261.44 108.23 259.47 C 108.55 262.99 107.96 266.65 109.11 270.06 C 110.88 275.50 116.34 279.44 122.04 279.51 C 125.14 279.30 127.76 277.41 130.49 276.13 C 131.17 279.37 130.78 283.14 133.20 285.76 C 135.91 288.71 139.90 290.65 143.95 290.58 C 147.35 290.50 149.78 287.83 152.49 286.15 C 154.27 289.95 153.97 294.66 157.21 297.74 C 163.01 304.73 175.32 303.55 179.76 295.65 C 184.41 288.52 180.75 277.91 172.69 275.18 C 168.16 273.06 163.40 275.24 158.86 276.01 C 159.40 271.36 161.56 266.77 160.33 262.04 C 159.07 254.82 150.06 251.30 143.68 253.82 C 141.56 254.53 140.10 256.93 137.80 256.91 C 136.78 253.85 136.55 250.28 134.07 247.95 C 129.52 243.62 121.96 243.45 116.80 246.80 C 114.02 248.48 112.04 251.13 110.33 253.84 C 110.09 249.52 108.42 244.87 104.34 242.79 C 98.52 239.28 90.18 242.81 88.51 249.36 Z" />
<path fill="#9b9b9b" opacity="1.00" d=" M 559.42 138.36 C 574.40 127.98 597.16 128.41 610.28 141.71 C 619.99 151.43 623.35 165.82 622.57 179.19 C 603.12 179.20 583.67 179.16 564.23 179.21 C 564.67 185.47 566.10 192.65 571.75 196.34 C 581.36 202.38 596.67 200.11 601.73 189.14 C 608.22 189.11 614.70 189.11 621.19 189.14 C 618.58 196.69 614.70 204.24 608.07 209.02 C 599.75 215.06 589.03 216.76 578.98 216.00 C 568.54 215.30 558.07 210.80 551.43 202.53 C 543.43 192.70 540.90 179.30 542.52 166.93 C 543.97 155.65 549.89 144.78 559.42 138.36 M 568.69 153.70 C 565.86 156.81 564.82 161.02 564.15 165.05 C 576.21 165.07 588.27 165.06 600.34 165.06 C 598.97 159.06 596.78 152.07 590.64 149.41 C 583.39 146.58 573.99 147.57 568.69 153.70 Z" />
<path fill="#9b9b9b" opacity="1.00" d=" M 714.19 133.20 C 722.79 130.24 732.20 130.10 741.05 131.98 C 749.93 133.90 758.46 138.82 763.37 146.63 C 766.33 151.09 767.56 156.42 768.10 161.68 C 760.79 161.68 753.49 161.69 746.18 161.78 C 745.23 158.16 744.17 154.31 741.31 151.70 C 736.96 147.66 730.43 147.03 724.85 148.23 C 718.92 149.73 714.71 154.98 712.67 160.51 C 709.76 168.93 709.72 178.31 712.39 186.80 C 714.26 192.72 718.84 198.24 725.18 199.44 C 730.96 200.49 737.78 199.45 741.83 194.81 C 744.74 191.62 746.01 187.38 746.92 183.25 C 754.13 183.26 761.34 183.23 768.55 183.27 C 767.23 191.85 764.07 200.56 757.56 206.59 C 750.26 213.58 739.95 216.55 730.02 216.60 C 719.91 216.83 709.54 213.82 701.76 207.21 C 693.57 200.26 688.93 189.73 688.16 179.12 C 687.42 169.15 689.08 158.82 694.00 150.03 C 698.37 142.20 705.72 136.13 714.19 133.20 Z" />
<path fill="#9b9b9b" opacity="1.00" d=" M 789.41 136.45 C 797.96 130.50 808.97 130.38 818.98 130.97 C 826.84 131.58 835.28 133.24 841.22 138.81 C 845.39 142.69 847.25 148.49 847.23 154.08 C 847.28 163.39 847.24 172.70 847.24 182.01 C 847.24 190.12 845.28 198.65 839.81 204.87 C 834.00 211.44 825.31 214.60 816.83 215.81 C 807.44 217.24 797.17 217.22 788.76 212.27 C 773.69 203.71 773.24 178.06 788.52 169.50 C 795.78 165.30 804.27 164.20 812.46 163.22 C 817.18 162.48 822.90 162.01 825.88 157.75 C 828.16 154.13 824.95 149.80 821.26 148.95 C 815.92 147.57 809.77 147.04 804.79 149.85 C 801.86 151.43 800.38 154.54 799.06 157.43 C 792.61 157.44 786.17 157.44 779.73 157.43 C 780.15 149.60 782.63 141.11 789.41 136.45 M 814.08 177.52 C 809.63 178.44 804.79 179.10 801.24 182.20 C 796.89 185.82 796.90 193.18 800.87 197.08 C 803.86 199.74 808.21 199.71 811.96 199.21 C 817.44 198.61 822.75 195.31 825.06 190.20 C 827.45 185.23 826.89 179.56 827.01 174.22 C 822.80 175.68 818.46 176.72 814.08 177.52 Z" />
<path fill="#9b9b9b" opacity="1.00" d=" M 981.47 131.73 C 993.70 129.43 1007.22 130.97 1017.56 138.30 C 1031.76 148.10 1036.12 167.21 1033.22 183.43 C 1031.50 193.14 1026.60 202.54 1018.56 208.46 C 1009.07 215.61 996.59 217.57 985.01 216.21 C 975.85 215.14 966.86 211.22 960.54 204.40 C 953.79 197.32 950.36 187.60 949.73 177.95 C 949.06 167.53 950.86 156.59 956.80 147.81 C 962.33 139.32 971.60 133.67 981.47 131.73 M 985.37 148.60 C 977.84 151.01 973.57 158.73 972.63 166.19 C 971.58 174.74 971.70 184.12 976.25 191.73 C 982.44 202.33 999.90 202.63 1006.77 192.61 C 1010.74 186.94 1011.54 179.74 1011.55 172.99 C 1011.34 165.95 1010.18 158.26 1005.08 152.97 C 1000.15 147.69 992.06 146.60 985.37 148.60 Z" />
<path fill="#9b9b9b" opacity="1.00" d=" M 419.77 141.75 C 425.03 135.52 433.17 132.59 441.10 131.79 C 451.87 130.69 463.56 131.78 472.58 138.31 C 481.38 132.16 492.59 131.17 503.01 131.99 C 511.16 132.68 519.66 135.48 525.11 141.87 C 530.76 148.50 532.52 157.50 532.56 165.99 C 532.57 182.64 532.66 199.28 532.63 215.93 C 527.45 215.72 522.06 216.61 517.05 214.97 C 513.32 213.74 511.33 209.82 511.43 206.07 C 511.29 192.04 511.43 178.00 511.37 163.96 C 511.36 160.16 510.46 156.04 507.53 153.40 C 504.10 150.35 499.20 149.89 494.82 150.23 C 491.13 150.48 487.22 151.87 485.10 155.07 C 483.10 157.95 482.95 161.59 482.93 164.98 C 482.94 181.87 482.94 198.75 482.93 215.63 C 475.91 215.61 468.88 215.65 461.86 215.60 C 461.90 198.41 461.86 181.21 461.88 164.02 C 461.93 160.10 461.04 155.83 458.03 153.08 C 454.49 149.97 449.46 149.55 444.96 149.97 C 441.65 150.21 438.23 151.46 436.08 154.10 C 433.86 156.84 433.44 160.53 433.43 163.94 C 433.44 181.17 433.44 198.40 433.44 215.62 C 426.38 215.63 419.31 215.62 412.25 215.63 C 412.26 199.05 412.23 182.48 412.26 165.90 C 412.37 157.40 414.12 148.39 419.77 141.75 Z" />
<path fill="#9b9b9b" opacity="1.00" d=" M 660.90 133.32 C 667.94 131.38 675.30 131.38 682.55 131.36 C 682.63 138.61 682.63 145.86 682.63 153.11 C 675.49 153.58 667.05 151.95 661.30 157.30 C 656.16 162.00 655.80 169.50 655.87 176.00 C 655.89 189.31 655.87 202.62 655.88 215.94 C 648.81 215.94 641.75 215.94 634.69 215.94 C 634.70 201.95 634.66 187.97 634.71 173.99 C 634.83 164.08 636.58 153.66 642.58 145.50 C 646.96 139.39 653.67 135.21 660.90 133.32 Z" />
<path fill="#9b9b9b" opacity="1.00" d=" M 560.44 229.66 C 563.75 228.09 567.51 228.56 571.06 228.49 C 571.06 265.09 571.06 301.70 571.06 338.31 C 564.10 338.31 557.14 338.31 550.18 338.31 C 550.18 308.21 550.20 278.12 550.17 248.02 C 550.27 244.83 549.65 241.36 551.37 238.47 C 553.40 234.71 556.55 231.49 560.44 229.66 Z" />
<path fill="#9b9b9b" opacity="1.00" d=" M 593.37 247.56 C 593.37 241.21 593.37 234.85 593.38 228.50 C 600.33 228.50 607.29 228.50 614.25 228.50 C 614.25 234.85 614.24 241.21 614.25 247.56 C 607.29 247.57 600.33 247.56 593.37 247.56 Z" />
<path fill="#9b9b9b" opacity="1.00" d=" M 634.94 238.82 C 638.45 231.12 647.64 228.06 655.61 228.41 C 655.63 240.75 655.65 253.08 655.59 265.42 C 659.37 259.90 664.80 255.21 671.48 253.78 C 682.96 251.21 696.50 254.52 703.81 264.19 C 709.85 272.11 711.61 282.36 712.07 292.07 C 712.49 303.26 711.41 315.30 704.77 324.72 C 699.21 332.74 689.56 336.82 680.12 337.87 C 670.65 338.85 660.70 338.29 651.96 334.23 C 645.26 331.19 640.03 325.30 637.51 318.43 C 634.14 309.70 634.78 300.19 634.75 291.03 C 634.87 273.63 634.51 256.21 634.94 238.82 M 667.36 272.47 C 663.07 273.82 659.87 277.43 658.26 281.53 C 655.52 288.31 655.28 295.88 656.06 303.07 C 656.77 308.93 658.95 315.44 664.40 318.49 C 671.42 322.18 681.53 321.12 686.28 314.30 C 690.27 308.39 690.89 300.96 690.72 294.03 C 690.40 287.70 689.26 280.90 684.87 276.04 C 680.46 271.41 673.22 270.69 667.36 272.47 Z" />
<path fill="#9b9b9b" opacity="1.00" d=" M 789.74 264.79 C 804.09 250.48 830.04 248.99 845.03 263.08 C 855.26 272.78 858.95 287.59 858.07 301.31 C 838.62 301.32 819.18 301.30 799.73 301.32 C 800.19 307.43 801.50 314.37 806.82 318.18 C 816.46 324.68 832.12 322.36 837.33 311.24 C 843.79 311.27 850.25 311.22 856.72 311.27 C 854.10 318.90 850.14 326.52 843.42 331.30 C 834.67 337.52 823.43 339.13 812.96 337.99 C 802.90 337.03 792.97 332.37 786.67 324.34 C 779.67 315.60 777.03 304.05 777.67 293.03 C 778.12 282.59 782.26 272.18 789.74 264.79 M 804.55 275.46 C 801.52 278.62 800.35 282.98 799.67 287.18 C 811.73 287.19 823.79 287.19 835.86 287.18 C 834.49 281.19 832.28 274.25 826.18 271.57 C 819.07 268.82 809.94 269.66 804.55 275.46 Z" />
<path fill="#9b9b9b" opacity="1.00" d=" M 747.41 256.49 C 755.35 253.57 763.95 253.45 772.31 253.56 C 772.34 260.80 772.29 268.05 772.24 275.30 C 765.62 275.68 758.17 274.31 752.39 278.32 C 747.06 282.00 745.58 288.91 745.58 295.01 C 745.54 309.36 745.57 323.71 745.56 338.06 C 738.50 338.06 731.43 338.06 724.37 338.06 C 724.38 324.69 724.36 311.32 724.35 297.96 C 724.38 288.51 725.55 278.68 730.44 270.40 C 734.20 263.93 740.33 258.93 747.41 256.49 Z" />
<path fill="#9b9b9b" opacity="1.00" d=" M 593.37 257.00 C 600.33 256.99 607.29 257.00 614.25 257.00 C 614.25 284.10 614.25 311.21 614.25 338.31 C 607.29 338.31 600.33 338.31 593.38 338.31 C 593.36 311.21 593.38 284.11 593.37 257.00 Z" />
</g>
</svg>
